<?xml version="1.0" encoding="UTF-8" standalone="no"?>
<!-- Created with Inkscape (http://www.inkscape.org/) -->

<svg
   width="30.436283mm"
   height="29.033726mm"
   viewBox="0 0 30.436283 29.033726"
   version="1.1"
   id="svg1"
   xml:space="preserve"
   xmlns:inkscape="http://www.inkscape.org/namespaces/inkscape"
   xmlns:sodipodi="http://sodipodi.sourceforge.net/DTD/sodipodi-0.dtd"
   xmlns="http://www.w3.org/2000/svg"
   xmlns:svg="http://www.w3.org/2000/svg"><sodipodi:namedview
     id="namedview1"
     pagecolor="#ffffff"
     bordercolor="#666666"
     borderopacity="1.0"
     inkscape:showpageshadow="2"
     inkscape:pageopacity="0.0"
     inkscape:pagecheckerboard="0"
     inkscape:deskcolor="#d1d1d1"
     inkscape:document-units="mm" /><defs
     id="defs1" /><g
     inkscape:label="Camada 1"
     inkscape:groupmode="layer"
     id="layer1"
     transform="translate(-37.826474,-3.1750001)"><path
       style="fill:#000000"
       d="m 51.300202,32.11775 c -0.226259,-0.06512 -0.581091,-0.217853 -0.788514,-0.339411 -0.207423,-0.121558 -2.906,-2.741613 -5.996837,-5.822344 -4.634163,-4.61901 -5.676034,-5.700597 -5.940901,-6.167365 -0.933121,-1.644416 -0.996426,-3.650676 -0.168311,-5.334104 0.290406,-0.590349 0.633913,-0.955491 5.327783,-5.6633279 3.98408,-3.995933 5.109956,-5.07779 5.466974,-5.2532251 0.655329,-0.322022 1.453772,-0.439262 2.134602,-0.313437 0.939522,0.173634 1.335249,0.4532121 3.038369,2.1465751 l 1.571089,1.56209 -0.656481,0.656481 -0.656482,0.656482 -1.461883,-1.452754 c -0.893357,-0.887777 -1.587044,-1.505049 -1.783717,-1.587224 -0.399712,-0.167011 -0.856264,-0.171881 -1.222818,-0.01304 -0.161526,0.06999 -2.33075,2.181717 -5.121211,4.9854629 -5.586957,5.613556 -5.260483,5.192791 -5.26053,6.779851 -2.5e-5,0.861299 0.02394,1.00907 0.237658,1.465241 0.294668,0.628964 1.256528,1.646723 1.85229,1.959937 0.607588,0.319432 1.624707,0.330047 2.26414,0.02363 0.344964,-0.165308 1.764987,-1.532682 6.835962,-6.582513 7.299611,-7.2691759 6.723638,-6.7936809 8.229279,-6.7936809 1.438192,0 1.344198,-0.06851 5.242602,3.8212949 3.892951,3.88437 3.81396,3.775904 3.81396,5.237099 0,1.536398 0.476848,0.967732 -7.420031,8.848762 -6.581896,6.568686 -6.88276,6.855651 -7.383964,7.042837 -0.638857,0.238595 -1.589289,0.298935 -2.153028,0.136689 z m 1.385388,-1.883212 c 0.276947,-0.102866 13.379232,-13.144234 13.574347,-13.511235 0.148554,-0.279423 0.164322,-0.961606 0.02841,-1.229202 -0.05313,-0.104616 -0.492277,-0.590864 -0.975874,-1.08055 l -0.879267,-0.89034 -1.222955,1.199563 c -1.215798,1.192544 -1.540123,1.409582 -2.103881,1.407913 -0.599706,-0.0018 -1.348415,-0.48741 -1.57035,-1.018574 -0.159294,-0.381245 -0.148438,-1.105067 0.02168,-1.445341 0.07663,-0.153281 0.654034,-0.797859 1.283117,-1.432397 l 1.143787,-1.153702 -0.956558,-0.964151 C 60.501939,9.5862401 59.96567,9.0963401 59.836336,9.0278551 c -0.279535,-0.14802 -0.961741,-0.16365 -1.229202,-0.02816 -0.104615,0.05299 -2.992084,2.8888209 -6.416596,6.3018359 -3.424512,3.413014 -6.421511,6.336341 -6.659995,6.496283 -0.238486,0.159942 -0.740937,0.393919 -1.116558,0.519949 l -0.682947,0.229144 3.816108,3.769932 c 2.098861,2.073462 3.933671,3.822133 4.077357,3.885934 0.318291,0.141332 0.732701,0.153739 1.061089,0.03177 z M 42.290401,18.205786 C 41.88675,18.098364 41.653576,17.757537 41.653576,17.274948 v -0.400219 l 4.689198,-4.691558 c 4.656446,-4.6587879 4.692013,-4.6918759 5.091964,-4.7369559 0.374075,-0.04216 0.425431,-0.02273 0.720965,0.272803 0.295354,0.295354 0.314948,0.347055 0.272902,0.720085 -0.04494,0.39869 -0.08223,0.438816 -4.691735,5.0482819 -3.227332,3.227305 -4.726225,4.668671 -4.907683,4.719328 -0.143686,0.04011 -0.386139,0.0397 -0.538786,-9.27e-4 z"
       id="path2" /></g></svg>
