<?xml version="1.0" encoding="UTF-8" standalone="no"?>
<!-- Created with Inkscape (http://www.inkscape.org/) -->

<svg
   width="20.50034mm"
   height="20.624014mm"
   viewBox="0 0 20.50034 20.624014"
   version="1.1"
   id="svg1"
   xml:space="preserve"
   xmlns:inkscape="http://www.inkscape.org/namespaces/inkscape"
   xmlns:sodipodi="http://sodipodi.sourceforge.net/DTD/sodipodi-0.dtd"
   xmlns="http://www.w3.org/2000/svg"
   xmlns:svg="http://www.w3.org/2000/svg"><sodipodi:namedview
     id="namedview1"
     pagecolor="#ffffff"
     bordercolor="#666666"
     borderopacity="1.0"
     inkscape:showpageshadow="2"
     inkscape:pageopacity="0.0"
     inkscape:pagecheckerboard="0"
     inkscape:deskcolor="#d1d1d1"
     inkscape:document-units="mm" /><defs
     id="defs1" /><g
     inkscape:label="Camada 1"
     inkscape:groupmode="layer"
     id="layer1"
     transform="translate(-98.051173,-11.719585)"><path
       style="fill:#000000;stroke-width:0.734086"
       d="m 116.74983,32.230762 c -0.15441,-0.07242 -1.2629,-1.143221 -3.39974,-3.284122 l -3.17064,-3.176657 -0.29457,0.19866 c -0.68132,0.459487 -1.6996,0.878513 -2.61911,1.077777 -0.74044,0.160458 -2.02761,0.173558 -2.82865,0.02879 -3.72478,-0.673172 -6.385952,-3.849268 -6.385952,-7.621595 0,-5.290658 5.171502,-9.015143 10.164512,-7.320433 1.05824,0.359181 1.98588,0.929259 2.82911,1.738609 2.45067,2.35221 3.08274,6.004786 1.56557,9.04703 -0.1414,0.283517 -0.33419,0.627794 -0.42843,0.76506 l -0.17135,0.249576 3.15409,3.158354 c 3.37798,3.382549 3.38684,3.392915 3.38684,3.960221 0,0.918341 -0.98415,1.56221 -1.80168,1.178732 z m -9.88014,-7.768936 c 0.65784,-0.148656 1.26532,-0.436351 2.0117,-0.952724 0.43221,-0.299014 0.5575,-0.4259 0.88181,-0.893011 0.85158,-1.226572 1.10003,-2.041873 1.04021,-3.413553 -0.0576,-1.318974 -0.48839,-2.349903 -1.37007,-3.27808 -2.76473,-2.910543 -7.58167,-1.655341 -8.6454,2.252826 -0.17772,0.652908 -0.17771,1.860316 0,2.536404 0.71076,2.70405 3.39139,4.356097 6.08175,3.748138 z"
       id="path3" /></g></svg>
